<?xml version="1.0" encoding="UTF-8"?>
<svg id="Layer_1" xmlns="http://www.w3.org/2000/svg" version="1.1" viewBox="0 0 1280 1024">
  <!-- Generator: Adobe Illustrator 29.5.1, SVG Export Plug-In . SVG Version: 2.1.0 Build 141)  -->
  <defs>
    <style>
      .st0 {
        fill: #fff;
      }
    </style>
  </defs>
  <g>
    <path class="st0" d="M204.87,668.52c8.64,0,15.65-5.7,20.21-18.09l23.63-64.7c5.87-16.3,5.22-22.65-7.82-22.65v-1.96c7.01,0,12.88-2.28,18.09-7.01l1.79.65,36.02,99.91c3.91,11.08,8.97,13.85,16.79,13.85v1.95h-37.98v-1.95c8.48,0,14.51-2.77,10.59-13.85l-7.33-20.7h-43.84l-6.03,16.46c-4.56,12.39.81,18.09,11.57,18.09v1.95h-35.69v-1.95ZM277.89,631.36l-20.86-58.35-21.19,58.35h42.05Z"/>
    <path class="st0" d="M307.99,668.52c9.62,0,15.81-5.87,15.81-19.23v-71.71c0-13.36-6.19-19.39-15.81-19.39v-1.79h19.72l73.5,97.3v-76.11c0-13.36-6.19-19.39-15.97-19.39v-1.79h35.2v1.79c-9.62,0-15.81,6.03-15.81,19.39v92.9h-2.28l-75.14-98.6v77.42c0,13.36,6.85,19.23,17.77,19.23v1.95h-37v-1.95Z"/>
    <path class="st0" d="M442.47,668.52c7.66,0,13.04-2.61,13.04-14.51v-94.85h-13.85c-16.13,0-22.49,9.45-25.42,27.22l-2.12-.32,4.73-29.66h82.79l4.73,29.66-2.12.32c-3.1-17.76-9.13-27.22-25.26-27.22h-13.85v94.85c0,11.9,5.38,14.51,13.2,14.51v1.95h-35.86v-1.95Z"/>
    <path class="st0" d="M502.7,611.64c1.31-33.74,26.24-56.72,54.11-56.88,31.13-.32,56.72,27.38,55.41,60.63-1.3,33.25-25.42,56.72-54.11,56.72-30.32,0-56.72-27.87-55.42-60.47ZM563.01,668.68c25.1-2.12,41.56-27.71,38.63-59-3.1-29.99-22.17-55.25-51.83-51.34-22.98,2.93-39.61,28.36-36.51,58.68,2.77,28.52,22.82,53.95,49.71,51.66Z"/>
    <path class="st0" d="M607.75,668.52c9.62,0,15.81-5.87,15.81-19.23v-71.71c0-13.36-6.19-19.39-15.81-19.39v-1.79h19.72l73.5,97.3v-76.11c0-13.36-6.19-19.39-15.97-19.39v-1.79h35.2v1.79c-9.62,0-15.81,6.03-15.81,19.39v92.9h-2.28l-75.14-98.6v77.42c0,13.36,6.85,19.23,17.77,19.23v1.95h-37v-1.95Z"/>
    <path class="st0" d="M716.51,668.52c7.82,0,13.2-2.61,13.2-14.51v-81.16c0-11.9-5.38-14.51-13.2-14.51v-1.95h36.02v1.79c-7.82,0-13.2,2.77-13.2,14.67l.16,81.16c0,11.9,5.38,14.51,13.04,14.51v1.95h-36.02v-1.95Z"/>
    <path class="st0" d="M811.83,717.79c-15.64,0-30.06-2.25-43.24-6.76-13.19-4.51-24.66-10.87-34.4-19.09-9.74-8.22-17.3-17.86-22.67-28.93-5.37-11.07-8.05-23.17-8.05-36.29s2.85-26.31,8.55-37.97c5.7-11.66,13.72-21.8,24.06-30.42,10.34-8.61,22.5-15.31,36.48-20.08,13.99-4.77,29.19-7.16,45.63-7.16s31.98,2.79,45.03,8.35c13.06,5.57,23.03,13.46,29.92,23.66l-1.39,1.39c-6.76-10.07-16.48-17.83-29.13-23.26-12.66-5.43-27.47-8.15-44.44-8.15s-31.12,2.32-44.84,6.96c-13.72,4.64-25.65,11.17-35.79,19.58-10.14,8.42-18.03,18.33-23.66,29.72-5.63,11.4-8.45,23.86-8.45,37.38s2.65,24.72,7.95,35.59c5.3,10.87,12.72,20.28,22.27,28.23,9.54,7.95,20.77,14.15,33.7,18.59,12.92,4.44,27.07,6.66,42.45,6.66,13.52,0,26.04-1.62,37.57-4.87,11.54-3.25,21.57-7.79,30.12-13.62,8.55-5.83,15.21-12.69,19.98-20.58,4.77-7.89,7.16-16.47,7.16-25.75s-3.25-17.99-9.74-25.35c-6.5-7.36-15.44-13.15-26.84-17.4-11.4-4.24-24.39-6.36-38.97-6.36-12.46,0-22.54,1.89-30.22,5.67-7.69,3.78-11.54,8.65-11.54,14.61,0,10.61,8.88,15.91,26.64,15.91,7.29,0,14.48-.96,21.57-2.88,7.09-1.92,13.49-4.63,19.19-8.15,5.7-3.51,10.27-7.66,13.72-12.43,3.44-4.77,5.17-10.14,5.17-16.11s-1.69-10.8-5.07-14.91c-3.38-4.11-7.73-7.42-13.03-9.94-5.3-2.51-10.94-4.34-16.9-5.47-5.97-1.12-11.53-1.69-16.7-1.69-11.93,0-22.7,1.59-32.31,4.77-9.61,3.18-17.83,7.52-24.66,13.03-6.83,5.5-12.1,11.76-15.81,18.79-3.71,7.03-5.57,14.39-5.57,22.07,0,9.28,2.49,17.4,7.46,24.36,4.97,6.96,11.92,12.36,20.87,16.2,8.94,3.85,19.45,5.76,31.51,5.76,9.81,0,19.22-1.16,28.23-3.48,9.01-2.32,17.96-5.76,26.84-10.34,8.88-4.57,17.97-10.27,27.24-17.1,9.28-6.82,19.05-14.78,29.33-23.86,10.27-9.08,21.34-19.29,33.21-30.62,11.86-11.33,24.82-23.76,38.87-37.28,2.51-2.39,6.29-5.47,11.33-9.24,5.04-3.78,11-7.52,17.9-11.24,6.89-3.71,14.31-6.56,22.27-8.55l5.17.99c-8.49,1.73-16.37,4.48-23.66,8.25s-13.66,7.66-19.09,11.63c-5.44,3.98-9.68,7.29-12.73,9.94-7.56,6.76-14.95,14.45-22.17,23.06-7.23,8.62-14.45,17.5-21.68,26.64-7.23,9.15-14.65,18.03-22.27,26.64-7.62,8.62-15.6,16.3-23.96,23.06-7.3,5.83-15.64,11.1-25.05,15.81-9.42,4.7-19.45,8.45-30.12,11.24-10.67,2.78-21.64,4.17-32.91,4.17-15.64,0-28.53-2.55-38.67-7.66-10.13-5.1-17.66-11.9-22.56-20.38-4.91-8.48-7.36-17.83-7.36-28.04,0-7.95,1.85-15.57,5.57-22.86,3.71-7.29,9.07-13.75,16.1-19.39,7.03-5.63,15.51-10.1,25.45-13.42,9.94-3.31,21.08-4.97,33.4-4.97,4.77,0,10.2.57,16.3,1.69,6.09,1.13,11.99,3.02,17.7,5.67,5.7,2.65,10.37,6.2,14.02,10.64,3.64,4.44,5.46,9.91,5.46,16.4s-1.79,11.86-5.37,16.9c-3.58,5.04-8.38,9.35-14.41,12.92-6.04,3.58-12.66,6.33-19.88,8.25-7.23,1.92-14.55,2.95-21.98,3.08-19.09,0-28.63-5.97-28.63-17.9,0-6.62,4.04-11.99,12.13-16.1,8.08-4.11,18.62-6.16,31.61-6.16,14.98,0,28.3,2.18,39.97,6.56,11.66,4.38,20.84,10.41,27.53,18.1,6.7,7.69,10.05,16.5,10.05,26.44s-2.43,18.36-7.26,26.44c-4.84,8.08-11.63,15.14-20.38,21.17-8.75,6.03-19.02,10.74-30.82,14.12-11.8,3.38-24.59,5.07-38.37,5.07ZM977.45,724.36c-5.97,0-11.27-1.62-15.91-4.87-4.64-3.25-8.25-7.79-10.84-13.62-2.58-5.83-3.88-12.46-3.88-19.88s1.16-15.18,3.48-23.26c2.32-8.08,5.33-16.17,9.05-24.25,3.71-8.08,7.72-15.87,12.03-23.36,4.31-7.49,8.55-14.35,12.73-20.58,4.18-6.23,7.86-11.46,11.03-15.71,4.91-6.76,10.5-13.82,16.81-21.17,6.29-7.36,13.09-14.28,20.38-20.78,7.29-6.49,14.98-11.76,23.06-15.81,8.08-4.04,16.37-6.06,24.85-6.06,5.17,0,9.08.53,11.73,1.59,2.65,1.06,3.98,2.72,3.98,4.97,0,1.59-1.09,2.85-3.28,3.78-2.19.93-5.07,1.39-8.65,1.39-9.41,0-19.05-1.49-28.93-4.47-9.87-2.98-20.15-6.66-30.82-11.04-10.67-4.37-21.77-8.75-33.3-13.12-11.54-4.37-23.63-8.05-36.29-11.04-12.66-2.98-25.95-4.47-39.86-4.47-14.85,0-28.14,1.76-39.86,5.27-11.73,3.51-21.68,8.22-29.83,14.12-8.15,5.9-14.35,12.43-18.59,19.58-4.25,7.16-6.37,14.39-6.37,21.67,0,7.82,2.39,15.28,7.16,22.37,4.77,7.09,11.99,12.82,21.67,17.2,9.68,4.37,21.8,6.56,36.38,6.56,11.66,0,21.44-1.95,29.33-5.86,7.89-3.91,13.85-8.81,17.9-14.71,4.04-5.9,6.07-11.83,6.07-17.8,0-4.64-1.23-8.95-3.68-12.92-2.46-3.98-6.23-7.19-11.33-9.64-5.11-2.45-11.57-3.68-19.39-3.68-6.36,0-12.29.8-17.79,2.39-5.5,1.59-10.11,3.78-13.81,6.56l-1.59-1.39c3.97-3.05,8.87-5.4,14.71-7.06,5.83-1.66,11.99-2.49,18.49-2.49,8.22,0,15.01,1.33,20.38,3.98,5.37,2.65,9.38,6.07,12.03,10.24,2.65,4.17,3.98,8.72,3.98,13.62,0,6.36-2.09,12.69-6.26,18.99-4.18,6.3-10.37,11.5-18.59,15.61-8.22,4.11-18.42,6.17-30.62,6.17-15.11,0-27.67-2.36-37.67-7.06-10.01-4.7-17.5-10.8-22.47-18.29-4.97-7.49-7.46-15.41-7.46-23.76,0-7.55,2.12-15.04,6.37-22.47,4.24-7.42,10.47-14.18,18.69-20.28,8.21-6.1,18.26-10.97,30.12-14.61,11.86-3.64,25.35-5.47,40.46-5.47,13.78,0,27,1.53,39.67,4.57,12.66,3.05,24.85,6.8,36.58,11.23,11.73,4.44,23,8.88,33.8,13.32,10.8,4.44,21.21,8.19,31.21,11.23,10.01,3.05,19.65,4.57,28.93,4.57,3.04,0,5.26-.3,6.66-.89,1.39-.6,2.09-1.42,2.09-2.49s-.93-1.95-2.79-2.68c-1.85-.73-4.44-1.09-7.75-1.09-9.14,0-17.93,2.16-26.34,6.46-8.42,4.31-16.34,9.94-23.76,16.9-7.42,6.96-14.38,14.61-20.87,22.96-6.5,8.35-12.46,16.64-17.9,24.85-6.89,10.34-13.29,21.31-19.19,32.91-5.9,11.6-10.67,23.06-14.32,34.4-3.65,11.33-5.47,21.9-5.47,31.72,0,6.23.86,12.03,2.58,17.4s4.34,9.67,7.86,12.92c3.51,3.25,7.92,4.87,13.22,4.87,2.78,0,5.2-.47,7.26-1.39,2.05-.93,3.94-2.25,5.67-3.98l.39,1.79c-1.72,1.72-3.65,3.05-5.76,3.98-2.13.93-4.64,1.39-7.56,1.39ZM906.86,617.99l1.2-2.19h89.87v2.19h-91.07Z"/>
  </g>
  <g>
    <g>
      <path class="st0" d="M185.12,467.79c0,7.16,1.76,13.92,5.27,20.28,3.51,6.36,8.32,11.96,14.41,16.8,6.1,4.84,13.15,8.65,21.18,11.43,8.02,2.79,16.47,4.18,25.35,4.18,15.37,0,29.59-1.69,42.65-5.07,13.05-3.38,25.61-8.92,37.68-16.6,12.06-7.69,24.19-17.86,36.39-30.52,12.19-12.66,25.12-28.2,38.77-46.63,3.98-5.3,8.58-11.13,13.82-17.49,5.23-6.36,10.97-13.06,17.2-20.08h9.94c-3.45,1.99-6.73,4.24-9.84,6.76-3.12,2.52-6.36,5.57-9.74,9.14-3.38,3.58-7.23,8.02-11.53,13.32-4.31,5.3-9.45,11.86-15.41,19.68-11.4,16.04-21.67,29.76-30.82,41.16-9.15,11.4-17.73,20.84-25.75,28.33-8.02,7.49-15.91,13.39-23.66,17.69-7.75,4.31-15.84,7.32-24.26,9.05-8.42,1.72-17.73,2.58-27.93,2.58-11.53,0-22.47-1.69-32.81-5.07-10.34-3.38-19.45-8.05-27.34-14.02-7.88-5.97-14.12-12.79-18.69-20.48-4.57-7.69-6.86-15.84-6.86-24.46s2.06-17.4,6.16-25.15c4.11-7.75,9.88-14.48,17.3-20.18,7.42-5.7,16.14-10.14,26.15-13.32,10.01-3.18,20.91-4.77,32.71-4.77s21.84,1.59,30.52,4.77c8.68,3.18,15.44,7.66,20.28,13.42,4.84,5.76,7.26,12.49,7.26,20.18,0,6.49-1.66,12.59-4.97,18.29-3.32,5.7-7.92,10.71-13.82,15.01-5.9,4.31-12.72,7.66-20.48,10.04-7.76,2.38-16.14,3.58-25.15,3.58-11.67,0-20.98-2.36-27.93-7.06-6.96-4.71-10.44-10.97-10.44-18.79,0-4.77,1.76-9.08,5.27-12.92,3.51-3.85,7.85-6.17,13.02-6.96l1.59,1.39c-4.91.8-9.08,2.95-12.53,6.46-3.45,3.51-5.17,7.45-5.17,11.83,0,7.29,3.28,13.12,9.84,17.5,6.56,4.37,15.34,6.56,26.34,6.56,8.61,0,16.7-1.16,24.26-3.48,7.56-2.32,14.18-5.54,19.88-9.64,5.7-4.11,10.17-8.88,13.42-14.32,3.25-5.43,4.87-11.26,4.87-17.49,0-7.29-2.36-13.65-7.06-19.09-4.71-5.43-11.23-9.67-19.59-12.73-8.35-3.05-18.16-4.57-29.43-4.57s-22.17,1.52-31.91,4.57c-9.74,3.05-18.26,7.33-25.55,12.82-7.29,5.5-12.92,12-16.9,19.49-3.98,7.49-5.97,15.68-5.97,24.55ZM269.82,422.06c-11.67,0-22.1-1.69-31.31-5.07-9.21-3.38-16.47-7.99-21.77-13.82-5.3-5.83-7.95-12.46-7.95-19.88,0-10.2,3.71-19.22,11.13-27.04,7.42-7.82,17.79-13.92,31.12-18.29,13.32-4.37,28.66-6.56,46.03-6.56,12.59,0,25.15,1.56,37.68,4.67,12.53,3.12,24.46,7.55,35.79,13.32,11.33,5.76,21.44,12.69,30.32,20.78l-.8,1.79c-8.88-7.95-18.96-14.81-30.22-20.58-11.27-5.76-23.1-10.2-35.49-13.32-12.39-3.11-24.82-4.67-37.28-4.67s-23.96,1.23-34.5,3.68c-10.54,2.45-19.68,5.9-27.44,10.34-7.75,4.44-13.75,9.71-17.99,15.81-4.24,6.1-6.36,12.79-6.36,20.08s2.58,13.32,7.75,18.89c5.17,5.57,12.23,9.94,21.18,13.12,8.95,3.18,19.05,4.77,30.32,4.77,9.01,0,18.49-1.23,28.43-3.68,9.94-2.45,19.81-5.76,29.62-9.94,9.81-4.18,19.12-8.98,27.94-14.42,8.81-5.43,16.63-11.16,23.46-17.2,6.83-6.03,12.19-12.09,16.1-18.19,3.91-6.1,5.87-11.93,5.87-17.5,0-2.65-.73-4.77-2.19-6.36-1.46-1.59-3.38-2.39-5.77-2.39-4.64,0-9.84,1.76-15.61,5.27-5.77,3.51-11.53,8.12-17.3,13.82-5.77,5.7-11.07,11.97-15.91,18.79-4.84,6.83-8.72,13.65-11.63,20.48-2.92,6.83-4.37,12.96-4.37,18.39,0,6.1,1.36,10.93,4.08,14.51,2.72,3.58,6.39,5.37,11.03,5.37,5.83,0,12.1-1.52,18.79-4.57,6.69-3.05,13.39-7.22,20.08-12.53,6.69-5.3,13.09-11.33,19.19-18.09,6.1-6.76,11.53-13.88,16.31-21.37,4.77-7.49,8.55-14.94,11.33-22.37,2.78-7.42,4.18-14.38,4.18-20.88,0-8.22-1.99-14.48-5.97-18.79-3.98-4.31-9.81-6.46-17.5-6.46-8.35,0-17.13,1.96-26.34,5.87-9.21,3.91-18.43,9.28-27.64,16.1-9.21,6.83-17.93,14.61-26.15,23.36-8.22,8.75-15.54,17.99-21.97,27.74-6.43,9.74-11.5,19.48-15.21,29.23-3.71,9.74-5.57,19.06-5.57,27.93,0,12.73,3.05,22.37,9.15,28.93,6.09,6.56,15.11,9.84,27.04,9.84,5.97,0,12.53-1.26,19.68-3.78,7.16-2.52,14.51-6,22.07-10.44,7.55-4.44,14.91-9.67,22.07-15.71,7.16-6.03,13.72-12.56,19.68-19.59h2.39c-5.97,7.29-12.63,14.05-19.98,20.28-7.36,6.23-14.91,11.7-22.66,16.41-7.76,4.7-15.34,8.35-22.77,10.93-7.42,2.58-14.25,3.88-20.48,3.88-14.32,0-25.55-4.2-33.7-12.62-8.15-8.42-12.23-20.05-12.23-34.9,0-9.54,1.82-19.25,5.47-29.13,3.64-9.87,8.71-19.52,15.21-28.93,6.49-9.41,14.02-18.22,22.57-26.44,8.55-8.22,17.73-15.44,27.54-21.67,9.81-6.23,19.85-11.1,30.12-14.61,10.27-3.51,20.38-5.27,30.32-5.27,7.95,0,14.41,2.58,19.38,7.75,4.97,5.17,7.46,11.87,7.46,20.08,0,6.76-1.39,13.95-4.17,21.57-2.78,7.62-6.6,15.25-11.43,22.87-4.84,7.62-10.37,14.85-16.6,21.67-6.23,6.83-12.76,12.92-19.59,18.29-6.83,5.37-13.69,9.61-20.58,12.73-6.89,3.12-13.39,4.67-19.49,4.67-5.17,0-9.31-1.99-12.43-5.97-3.11-3.98-4.67-9.28-4.67-15.91,0-5.83,1.49-12.23,4.47-19.19,2.98-6.96,6.96-13.95,11.93-20.98,4.97-7.02,10.4-13.45,16.3-19.29,5.9-5.83,11.8-10.5,17.7-14.02,5.9-3.51,11.3-5.27,16.2-5.27,3.18,0,5.67.93,7.45,2.78,1.79,1.86,2.68,4.51,2.68,7.95,0,5.83-1.96,11.9-5.87,18.19-3.91,6.3-9.31,12.56-16.2,18.79-6.89,6.23-14.78,12.1-23.66,17.6-8.88,5.5-18.32,10.37-28.33,14.61-10.01,4.25-20.08,7.59-30.22,10.04-10.14,2.45-19.92,3.68-29.33,3.68Z"/>
      <path class="st0" d="M424.62,470.41c7.82,0,13.2-2.61,13.2-14.51v-81.16c0-11.9-5.38-14.67-13.2-14.67v-1.79h46.29c25.26,0,35.2,17.27,35.2,31.94s-10.27,31.46-34.55,31.46l-5.7.16c7.82,0,16.13,2.44,21.84,11.9l14.34,23.79c6.19,10.11,11.9,12.88,21.02,12.88v1.96h-23.47l-22.17-37c-5.05-8.31-12.22-13.37-23.14-13.53h-6.85v34.06c0,11.9,5.38,14.51,13.2,14.51v1.96h-36.02v-1.96ZM470.25,418.91c20.21-.16,25.91-15.64,25.75-28.52-.16-12.88-5.54-29.34-27.22-29.34h-21.35v58.02l22.82-.16Z"/>
      <path class="st0" d="M518.68,470.41c8.64,0,15.65-5.7,20.21-18.09l23.63-64.7c5.87-16.3,5.22-22.65-7.82-22.65v-1.96c7.01,0,12.88-2.28,18.09-7.01l1.79.65,36.02,99.91c3.91,11.08,8.97,13.85,16.79,13.85v1.96h-37.98v-1.96c8.48,0,14.51-2.77,10.59-13.85l-7.33-20.7h-43.84l-6.03,16.46c-4.56,12.39.81,18.09,11.57,18.09v1.96h-35.69v-1.96ZM591.7,433.25l-20.86-58.35-21.19,58.35h42.05Z"/>
      <path class="st0" d="M614.56,413.2c1.47-30.97,23.47-56.23,52.97-56.72,21.03-.16,29.5,10.6,35.37,10.27,3.59-.32,5.05-3.26,4.73-8.47l2.28-.17,3.59,41.07-2.12.32c-4.73-25.75-24.45-40.58-44.66-40.42-27.71.32-45.15,26.89-42.54,57.21,2.61,30.8,23.31,51.66,52.15,49.87,21.68-1.47,34.06-17.11,39.61-34.39l2.12.49c-5.22,21.51-22.82,41.72-49.06,41.72-32.27,0-56.07-27.06-54.44-60.79Z"/>
      <path class="st0" d="M715.45,470.41c7.82,0,13.2-2.61,13.2-14.51v-81.16c0-11.9-5.38-14.51-13.2-14.51v-1.95h36.02v1.79c-7.82,0-13.2,2.77-13.2,14.67l.16,81.16c0,11.9,5.38,14.51,13.04,14.51v1.96h-36.02v-1.96Z"/>
      <path class="st0" d="M749.5,470.41c7.82,0,13.2-2.61,13.2-14.51v-81.16c0-11.9-5.38-14.67-13.2-14.67v-1.79h75.46l4.89,29.66-1.79.32c-3.91-18.74-9.94-27.22-26.24-27.22h-29.5v52.32h26.57c8.31,0,11.57-3.1,11.57-17.27h2.28v37.65h-2.28c0-14.18-3.26-17.6-11.74-17.6h-26.4v44.65c0,6.03,1.79,8.8,8.64,8.8h24.29c18.42,0,23.79-8.64,29.17-27.05l1.79.49-6.36,29.34h-80.35v-1.96Z"/>
    </g>
    <path class="st0" d="M928.11,382.19c-11.98,2.51-24.64,6.5-37.88,12.21l-.91-2.28c13.58-5.82,26.47-9.81,38.79-12.32,1.6-45.75,39.02-77.81,60.7-77.81,9.01,0,15.29,5.47,15.29,17.57,0,19.62-8.44,39.36-20.42,58.3,10.04,1.25,19.17,3.54,27.61,6.39,4.22-2.05,8.44-3.31,12.67-3.31v2.28c-3.08,0-6.39.8-9.58,2.17,39.7,14.94,60.01,45.86,60.01,72.22s-17.8,45.86-54.08,45.86c-31.49,0-56.36-19.62-72.22-46.66-14.03,17.91-28.98,34.57-38.22,34.57-4.11,0-7.53-2.28-7.53-8.21,0-14.95,14.03-36.28,32.29-57.28-4.34-14.03-6.5-28.86-6.5-43.13v-.57ZM937.57,434.78c-17.91,19.05-32.97,34.68-32.97,48.38,0,4.11,2.51,5.93,5.25,5.93,9.7,0,22.59-15.18,36.97-34.34-3.54-6.28-6.62-13.01-9.24-19.97ZM930.39,381.73c0,14.72,2.05,28.75,5.93,42.21.91-1.03,1.83-2.05,2.74-3.08,11.87-13.24,25.79-26.81,37.54-41.53-4.91-.46-9.92-.68-15.17-.68-9.81,0-20.08,1.02-31.03,3.08ZM978.19,377.17c13.46-17.34,23.62-36.17,23.62-57.62,0-10.38-5.36-15.06-13.12-15.06-20.08,0-56.36,31.38-58.19,74.85,10.84-2.05,21.11-2.97,30.92-2.97,5.82,0,11.41.34,16.77.8ZM982.3,379.9c-10.5,16.09-23.39,31.49-35.94,45.29l-7.07,7.76c2.51,6.96,5.59,13.58,9.01,19.97l7.42-9.92c16.88-22.7,35.37-47.24,52.82-57.28-7.99-2.62-16.77-4.56-26.24-5.82ZM1011.51,386.75c-17.46,9.13-36.74,34.57-53.97,57.62-2.62,3.54-5.36,7.07-8.1,10.61,15.52,26.81,39.82,46.21,70.85,46.21,34.91,0,51.8-19.85,51.8-43.58,0-26.02-20.42-56.59-60.58-70.85Z"/>
  </g>
</svg>